HIERARCHY
ROOT Hips
{
	OFFSET 0.000000 103.266502 0.000000
	CHANNELS 6 Xposition Yposition Zposition Xrotation Yrotation Zrotation 
	JOINT Spine
	{
		OFFSET -0.002400 12.777504 0.315300
		CHANNELS 3 Xrotation Yrotation Zrotation
		JOINT Spine1
		{
			OFFSET -0.002067 5.816869 0.032633
			CHANNELS 3 Xrotation Yrotation Zrotation
			JOINT Spine1_split
			{
				OFFSET -0.002067 5.816869 0.032633
				CHANNELS 3 Xrotation Yrotation Zrotation
				JOINT Spine2
				{
					OFFSET -0.002067 5.816869 0.032633
					CHANNELS 3 Xrotation Yrotation Zrotation
					JOINT Neck
					{
						OFFSET -0.003700 21.199493 -0.826900
						CHANNELS 3 Xrotation Yrotation Zrotation
						JOINT Head
						{
							OFFSET 0.000000 20.442200 4.834800
							CHANNELS 3 Xrotation Yrotation Zrotation
							JOINT HeadTop_End
							{
								OFFSET 0.000000 34.668396 4.968400
								CHANNELS 3 Xrotation Yrotation Zrotation
								End Site
								{
									OFFSET 0.000000 0.000000 0.000000
								}
							}
						}
					}
					JOINT LeftShoulder
					{
						OFFSET 3.288150 8.794197 -1.372250
						CHANNELS 3 Xrotation Yrotation Zrotation
						JOINT LeftShoulder_split
						{
							OFFSET 3.288150 8.794197 -1.372250
							CHANNELS 3 Xrotation Yrotation Zrotation
							JOINT LeftArm
							{
								OFFSET 11.953299 -2.279007 -0.146200
								CHANNELS 3 Xrotation Yrotation Zrotation
								JOINT LeftForeArm
								{
									OFFSET 18.448900 0.000000 0.000000
									CHANNELS 3 Xrotation Yrotation Zrotation
									JOINT LeftHand
									{
										OFFSET 29.527798 0.000000 0.000000
										CHANNELS 3 Xrotation Yrotation Zrotation
										JOINT LeftHandThumb1
										{
											OFFSET 10.739754 -2.369614 9.225399
											CHANNELS 3 Xrotation Yrotation Zrotation
											JOINT LeftHandThumb2
											{
												OFFSET 4.926170 -2.844131 2.844125
												CHANNELS 3 Xrotation Yrotation Zrotation
												JOINT LeftHandThumb3
												{
													OFFSET 4.614891 -2.664413 2.664409
													CHANNELS 3 Xrotation Yrotation Zrotation
													JOINT LeftHandThumb4
													{
														OFFSET 4.432465 -2.559082 2.559083
														CHANNELS 3 Xrotation Yrotation Zrotation
														End Site
														{
															OFFSET 0.000000 0.000000 0.000000
														}
													}
												}
											}
										}
										JOINT LeftHandIndex1
										{
											OFFSET 26.467674 0.187653 6.405298
											CHANNELS 3 Xrotation Yrotation Zrotation
											JOINT LeftHandIndex2
											{
												OFFSET 8.792900 0.000000 0.000000
												CHANNELS 3 Xrotation Yrotation Zrotation
												JOINT LeftHandIndex3
												{
													OFFSET 10.075203 0.000000 0.000000
													CHANNELS 3 Xrotation Yrotation Zrotation
													End Site
													{
														OFFSET 0.000000 0.000000 0.000000
													}
												}
											}
										}
										JOINT LeftHandMiddle1
										{
											OFFSET 25.764404 0.000000 0.000000
											CHANNELS 3 Xrotation Yrotation Zrotation
											JOINT LeftHandMiddle2
											{
												OFFSET 9.393974 0.000000 0.000000
												CHANNELS 3 Xrotation Yrotation Zrotation
												JOINT LeftHandMiddle3
												{
													OFFSET 10.771950 0.000000 0.000000
													CHANNELS 3 Xrotation Yrotation Zrotation
													End Site
													{
														OFFSET 0.000000 0.000000 0.000000
													}
												}
											}
										}
										JOINT LeftHandRing1
										{
											OFFSET 24.660927 0.144547 -6.225808
											CHANNELS 3 Xrotation Yrotation Zrotation
											JOINT LeftHandRing2
											{
												OFFSET 9.393799 0.000000 0.000000
												CHANNELS 3 Xrotation Yrotation Zrotation
												JOINT LeftHandRing3
												{
													OFFSET 9.928497 0.000000 0.000000
													CHANNELS 3 Xrotation Yrotation Zrotation
													End Site
													{
														OFFSET 0.000000 0.000000 0.000000
													}
												}
											}
										}
										JOINT LeftHandPinky1
										{
											OFFSET 23.655350 0.125290 -12.815412
											CHANNELS 3 Xrotation Yrotation Zrotation
											JOINT LeftHandPinky2
											{
												OFFSET 8.425102 0.000000 0.000000
												CHANNELS 3 Xrotation Yrotation Zrotation
												JOINT LeftHandPinky3
												{
													OFFSET 8.147003 0.000000 0.000000
													CHANNELS 3 Xrotation Yrotation Zrotation
													End Site
													{
														OFFSET 0.000000 0.000000 0.000000
													}
												}
											}
										}
									}
								}
							}
						}
					}
					JOINT RightShoulder
					{
						OFFSET -3.249400 8.794197 -1.372250
						CHANNELS 3 Xrotation Yrotation Zrotation
						JOINT RightShoulder_split
						{
							OFFSET -3.249400 8.794197 -1.372250
							CHANNELS 3 Xrotation Yrotation Zrotation
							JOINT RightArm
							{
								OFFSET -11.953299 -2.279007 -0.146200
								CHANNELS 3 Xrotation Yrotation Zrotation
								JOINT RightForeArm
								{
									OFFSET -18.448900 0.000000 0.000000
									CHANNELS 3 Xrotation Yrotation Zrotation
									JOINT RightHand
									{
										OFFSET -29.527802 0.000000 0.000000
										CHANNELS 3 Xrotation Yrotation Zrotation
										JOINT RightHandThumb1
										{
											OFFSET -10.739754 -2.369614 9.225399
											CHANNELS 3 Xrotation Yrotation Zrotation
											JOINT RightHandThumb2
											{
												OFFSET -4.926170 -2.844131 2.844125
												CHANNELS 3 Xrotation Yrotation Zrotation
												JOINT RightHandThumb3
												{
													OFFSET -4.614891 -2.664413 2.664409
													CHANNELS 3 Xrotation Yrotation Zrotation
													JOINT RightHandThumb4
													{
														OFFSET -4.432465 -2.559082 2.559083
														CHANNELS 3 Xrotation Yrotation Zrotation
														End Site
														{
															OFFSET 0.000000 0.000000 0.000000
														}
													}
												}
											}
										}
										JOINT RightHandIndex1
										{
											OFFSET -26.467674 0.187653 6.405298
											CHANNELS 3 Xrotation Yrotation Zrotation
											JOINT RightHandIndex2
											{
												OFFSET -8.792900 0.000000 0.000000
												CHANNELS 3 Xrotation Yrotation Zrotation
												JOINT RightHandIndex3
												{
													OFFSET -10.075203 0.000000 0.000000
													CHANNELS 3 Xrotation Yrotation Zrotation
													End Site
													{
														OFFSET 0.000000 0.000000 0.000000
													}
												}
											}
										}
										JOINT RightHandMiddle1
										{
											OFFSET -25.764404 0.000000 0.000000
											CHANNELS 3 Xrotation Yrotation Zrotation
											JOINT RightHandMiddle2
											{
												OFFSET -9.393974 0.000000 0.000000
												CHANNELS 3 Xrotation Yrotation Zrotation
												JOINT RightHandMiddle3
												{
													OFFSET -10.771950 0.000000 0.000000
													CHANNELS 3 Xrotation Yrotation Zrotation
													End Site
													{
														OFFSET 0.000000 0.000000 0.000000
													}
												}
											}
										}
										JOINT RightHandRing1
										{
											OFFSET -24.660927 0.144547 -6.225808
											CHANNELS 3 Xrotation Yrotation Zrotation
											JOINT RightHandRing2
											{
												OFFSET -9.393799 0.000000 0.000000
												CHANNELS 3 Xrotation Yrotation Zrotation
												JOINT RightHandRing3
												{
													OFFSET -9.928497 0.000000 0.000000
													CHANNELS 3 Xrotation Yrotation Zrotation
													End Site
													{
														OFFSET 0.000000 0.000000 0.000000
													}
												}
											}
										}
										JOINT RightHandPinky1
										{
											OFFSET -23.655350 0.125290 -12.815412
											CHANNELS 3 Xrotation Yrotation Zrotation
											JOINT RightHandPinky2
											{
												OFFSET -8.425102 0.000000 0.000000
												CHANNELS 3 Xrotation Yrotation Zrotation
												JOINT RightHandPinky3
												{
													OFFSET -8.147003 0.000000 0.000000
													CHANNELS 3 Xrotation Yrotation Zrotation
													End Site
													{
														OFFSET 0.000000 0.000000 0.000000
													}
												}
											}
										}
									}
								}
							}
						}
					}
				}
			}
		}
	}
	JOINT LeftUpLeg
	{
		OFFSET 11.394100 -6.187798 -0.413800
		CHANNELS 3 Xrotation Yrotation Zrotation
		JOINT LeftLeg
		{
			OFFSET 0.430247 -32.302673 3.732800
			CHANNELS 3 Xrotation Yrotation Zrotation
			JOINT LeftFoot
			{
				OFFSET -0.430247 -48.264931 -6.423300
				CHANNELS 3 Xrotation Yrotation Zrotation
				JOINT LeftToeBase
				{
					OFFSET 4.230900 -16.068199 23.438400
					CHANNELS 3 Xrotation Yrotation Zrotation
					JOINT LeftToe_End
					{
						OFFSET 4.510700 0.695400 19.974600
						CHANNELS 3 Xrotation Yrotation Zrotation
						End Site
						{
							OFFSET 0.000000 0.000000 0.000000
						}
					}
				}
			}
		}
	}
	JOINT RightUpLeg
	{
		OFFSET -11.333700 -6.187798 -0.413800
		CHANNELS 3 Xrotation Yrotation Zrotation
		JOINT RightLeg
		{
			OFFSET -0.430392 -32.302628 3.733000
			CHANNELS 3 Xrotation Yrotation Zrotation
			JOINT RightFoot
			{
				OFFSET 0.430392 -48.264973 -6.423500
				CHANNELS 3 Xrotation Yrotation Zrotation
				JOINT RightToeBase
				{
					OFFSET -4.230900 -16.068199 23.438400
					CHANNELS 3 Xrotation Yrotation Zrotation
					JOINT RightToe_End
					{
						OFFSET -4.510700 0.695400 19.974600
						CHANNELS 3 Xrotation Yrotation Zrotation
						End Site
						{
							OFFSET 0.000000 0.000000 0.000000
						}
					}
				}
			}
		}
	}
}
MOTION
Frames: 5
Frame Time: 0.016667
0.159074 101.858734 0.275244 -3.752922 -5.216188 -3.655258 3.298727 1.541741 2.632090 1.151563 0.341256 1.563088 0.000000 0.000000 0.000000 1.124399 0.369602 1.558066 5.626311 -0.076130 0.454683 -7.563349 1.377076 -0.080249 -0.000000 0.000000 -0.000000 1.046818 -17.441250 -12.316048 0.000000 0.000000 0.000000 3.916269 -19.989261 -69.765232 0.000005 -1.459371 -0.000001 -33.230407 -1.364819 -6.186619 -0.663002 2.160316 4.832495 11.845352 25.425975 17.060324 -13.814327 3.531931 9.046583 0.000000 -0.000000 -0.000000 0.019864 -0.969579 -7.593534 0.267777 1.752587 -17.372554 0.000001 -0.000000 -0.000003 -0.076309 2.665779 -15.696835 0.268786 1.755802 -17.405537 -0.000001 -0.000000 0.000000 0.136906 3.641772 -21.133536 0.386301 2.093952 -20.903099 0.000001 0.000000 -0.000000 0.917891 5.560954 -27.127208 0.268796 1.755853 -17.405964 -0.000000 -0.000000 -0.000003 1.209147 15.345166 14.705933 0.000000 0.000000 0.000000 13.158859 27.555118 58.785171 -0.000001 6.693732 0.000006 -20.179094 -0.514091 6.782803 -1.665253 -0.174481 -4.219045 12.710948 -29.825326 -16.130924 -15.549426 -3.559414 -12.707138 0.000000 -0.000002 -0.000005 0.037228 1.273356 6.824650 0.213718 -1.396034 17.407017 -0.000001 0.000000 0.000002 -0.136229 -2.205105 14.998889 0.214448 -1.398347 17.436889 0.000000 -0.000001 0.000000 0.030605 -3.075761 20.451034 0.308445 -1.668287 20.948518 0.000000 -0.000000 0.000005 0.756728 -4.881345 26.474351 0.214459 -1.398380 17.437242 -0.000002 -0.000001 -0.000002 -12.080904 14.419494 10.837305 12.509813 2.079783 4.085803 2.254453 0.423360 -7.278665 -4.940033 0.000003 0.000003 -0.000000 -0.000000 -0.000000 1.442271 -10.344073 3.406063 6.288723 -9.700702 -3.282940 -3.388020 -1.695043 3.302588 -7.282874 -0.000007 -0.000000 0.000000 -0.000001 -0.000000 
0.166449 101.852760 0.264480 -3.774412 -5.361775 -3.695112 3.298566 1.541591 2.638013 1.151563 0.341255 1.563088 0.000000 0.000000 0.000000 1.124399 0.369602 1.558065 5.641321 -0.076130 0.444040 -7.562832 1.382774 -0.108852 0.000000 -0.000000 -0.000000 1.048150 -17.435434 -12.315649 0.000000 0.000000 0.000000 3.889511 -20.129824 -69.771011 0.000000 -1.500341 0.000001 -33.176476 -1.403254 -6.179772 -0.731338 2.210473 4.906267 11.849512 25.426136 17.047000 -13.814334 3.531929 9.046605 0.000002 0.000001 0.000003 0.037643 -0.954840 -7.569165 0.267772 1.752585 -17.372576 -0.000000 -0.000000 0.000000 -0.085752 2.628825 -15.661562 0.268446 1.754725 -17.394431 0.000001 -0.000000 -0.000002 0.132377 3.630376 -21.141415 0.386302 2.093951 -20.903111 -0.000000 0.000001 -0.000001 0.910057 5.545739 -27.128190 0.268794 1.755848 -17.405986 0.000001 -0.000000 -0.000004 1.208450 15.358328 14.695762 0.000000 0.000000 0.000000 13.135320 27.547095 58.785123 -0.000001 6.665737 0.000005 -20.179217 -0.509191 6.769467 -1.578890 0.146357 -3.611988 12.359116 -29.465955 -16.752513 -15.196324 -6.264803 -13.853281 -0.000005 -0.000001 -0.000003 0.071398 1.294370 6.594609 0.207549 -1.376189 17.151853 0.000003 0.000000 0.000001 -0.135837 -2.183626 14.745357 0.208854 -1.380419 17.206152 -0.000002 -0.000000 -0.000001 0.029730 -3.067576 20.320443 0.308037 -1.667211 20.934472 -0.000001 -0.000002 0.000002 0.766591 -4.905940 26.265069 0.214461 -1.398375 17.437239 0.000001 -0.000001 0.000000 -12.102701 14.420315 10.915462 12.604047 2.209935 4.058273 2.190456 0.422832 -7.273265 -4.940030 -0.000007 0.000001 -0.000000 0.000000 0.000000 1.427569 -10.348883 3.479011 6.305897 -9.346111 -3.332423 -3.362695 -1.903229 3.276271 -7.282876 -0.000006 -0.000000 -0.000000 -0.000001 -0.000000 
0.172677 101.842804 0.255266 -3.797522 -5.512799 -3.731629 3.298497 1.541433 2.640636 1.151564 0.341254 1.563088 0.000000 0.000000 0.000000 1.124399 0.369603 1.558065 5.658003 -0.073426 0.433888 -7.562017 1.396771 -0.134893 0.000000 0.000000 -0.000000 1.049205 -17.430822 -12.315334 0.000000 0.000000 0.000000 3.861912 -20.202545 -69.781338 -0.000001 -1.523124 0.000002 -33.149551 -1.438199 -6.183294 -0.802502 2.237497 4.968534 11.855474 25.426383 17.027937 -13.814334 3.531923 9.046600 -0.000001 -0.000001 -0.000003 0.044153 -0.951274 -7.556535 0.267773 1.752585 -17.372567 -0.000000 -0.000000 -0.000000 -0.094899 2.594727 -15.647828 0.268338 1.754384 -17.391021 0.000000 -0.000000 0.000004 0.130830 3.627160 -21.159291 0.386303 2.093950 -20.903097 0.000000 0.000000 0.000000 0.906109 5.538027 -27.131000 0.268798 1.755852 -17.405984 0.000001 0.000001 -0.000002 1.206566 15.367489 14.694092 0.000000 0.000000 0.000000 13.125060 27.554849 58.770745 -0.000004 6.622060 0.000010 -20.182818 -0.523823 6.785144 -1.413006 0.635815 -2.930315 11.971220 -29.040189 -17.421509 -14.788295 -9.187074 -14.782836 -0.000002 0.000002 -0.000001 0.104995 1.310483 6.427148 0.200376 -1.352752 16.850814 0.000001 0.000001 0.000001 -0.135438 -2.165791 14.534651 0.201552 -1.356605 16.900301 0.000001 -0.000000 -0.000002 0.033621 -3.072507 20.193225 0.307456 -1.665703 20.914596 -0.000001 -0.000000 -0.000001 0.776730 -4.930058 26.118695 0.214823 -1.399542 17.452349 0.000000 0.000000 0.000003 -12.130154 14.420940 10.993428 12.715612 2.345114 4.031159 2.115355 0.422699 -7.270800 -4.940032 0.000000 -0.000003 0.000000 -0.000000 0.000000 1.390906 -10.347436 3.543116 6.361224 -9.008726 -3.380424 -3.353019 -2.100632 3.253255 -7.282872 0.000023 0.000003 -0.000000 -0.000001 0.000000 
0.178303 101.831749 0.248049 -3.821984 -5.668975 -3.768921 3.298418 1.541260 2.643531 1.151564 0.341256 1.563088 0.000000 0.000000 0.000000 1.124400 0.369599 1.558066 5.675497 -0.070796 0.424323 -7.560892 1.416646 -0.159048 -0.000000 0.000000 0.000000 1.050084 -17.426978 -12.315068 0.000000 0.000000 0.000000 3.834567 -20.228942 -69.793919 -0.000002 -1.533923 -0.000002 -33.143278 -1.469027 -6.193458 -0.859825 2.255365 5.016267 11.860748 25.426595 17.011030 -13.814335 3.531926 9.046600 0.000000 0.000000 0.000000 0.045883 -0.951698 -7.554054 0.267774 1.752584 -17.372557 0.000000 -0.000001 -0.000005 -0.102330 2.568134 -15.649398 0.268285 1.754227 -17.389392 -0.000001 0.000000 -0.000001 0.131292 3.629443 -21.184105 0.386302 2.093951 -20.903109 -0.000000 -0.000000 -0.000002 0.904505 5.534718 -27.140458 0.268795 1.755849 -17.405981 0.000001 -0.000000 -0.000000 1.203738 15.373914 14.698711 0.000000 0.000000 0.000000 13.129132 27.577801 58.738083 -0.000000 6.568084 -0.000008 -20.190166 -0.555374 6.822976 -1.186850 1.249701 -2.178573 11.554268 -28.561298 -18.150367 -14.356798 -12.250600 -15.529931 0.000003 -0.000000 0.000001 0.135003 1.320356 6.337460 0.192946 -1.327972 16.533023 -0.000001 0.000001 -0.000000 -0.135126 -2.153228 14.386332 0.193473 -1.329762 16.555970 -0.000000 -0.000000 -0.000002 0.040895 -3.088794 20.111063 0.307198 -1.665019 20.905570 0.000001 0.000001 0.000001 0.784873 -4.944864 26.073428 0.215506 -1.401709 17.480083 -0.000001 0.000001 -0.000002 -12.157862 14.422540 11.074484 12.833651 2.483826 4.003285 2.034476 0.422513 -7.270894 -4.940029 -0.000008 -0.000001 0.000000 0.000001 -0.000000 1.351269 -10.346091 3.606167 6.426076 -8.663469 -3.426468 -3.347918 -2.299152 3.229090 -7.282879 -0.000003 -0.000000 0.000001 0.000000 -0.000000 
0.183332 101.819443 0.242746 -3.847600 -5.830174 -3.807366 3.298338 1.541065 2.646631 1.151563 0.341255 1.563088 0.000000 0.000000 0.000000 1.124399 0.369604 1.558064 5.693594 -0.068301 0.415616 -7.559566 1.446651 -0.179899 0.000000 -0.000000 -0.000000 1.050918 -17.423336 -12.314822 0.000000 0.000000 0.000000 3.808595 -20.203682 -69.807928 0.000001 -1.531667 -0.000010 -33.160463 -1.493181 -6.210396 -0.893344 2.266906 5.044468 11.863841 25.426728 17.001032 -13.814334 3.531929 9.046592 -0.000000 -0.000002 -0.000003 0.045232 -0.953520 -7.562260 0.267774 1.752586 -17.372576 -0.000000 -0.000001 -0.000003 -0.107199 2.551896 -15.663085 0.268260 1.754140 -17.388507 0.000001 -0.000000 -0.000003 0.133482 3.636335 -21.212327 0.386303 2.093947 -20.903133 0.000001 0.000001 -0.000002 0.905351 5.536015 -27.157578 0.268797 1.755853 -17.405967 0.000000 0.000000 -0.000000 1.199731 15.377510 14.710616 0.000000 0.000000 0.000000 13.152616 27.622923 58.680518 -0.000004 6.503549 -0.000003 -20.198246 -0.604038 6.887970 -0.884020 2.002774 -1.334094 11.096488 -28.015863 -18.976176 -13.874427 -15.462184 -16.025862 0.000001 0.000001 0.000003 0.156858 1.325193 6.366502 0.185480 -1.302552 16.207636 -0.000001 0.000001 0.000002 -0.135635 -2.147137 14.342987 0.184918 -1.300617 16.182865 0.000003 -0.000000 0.000000 0.051665 -3.118618 20.120313 0.307811 -1.666627 20.926795 0.000001 0.000000 0.000002 0.785075 -4.942815 26.198365 0.216567 -1.405085 17.523550 0.000002 -0.000001 -0.000002 -12.186576 14.425269 11.159183 12.958173 2.625593 3.974797 1.949830 0.422225 -7.273924 -4.940035 0.000000 -0.000003 -0.000001 -0.000001 -0.000000 1.308287 -10.343849 3.668397 6.500549 -8.312796 -3.470453 -3.347351 -2.497743 3.203902 -7.287773 0.000002 -0.000001 0.000000 -0.000002 -0.000000 
